<!-- icon666.com - MILLIONS OF FREE VECTOR ICONS --><svg version="1.1" id="Capa_1" xmlns="http://www.w3.org/2000/svg" xmlns:xlink="http://www.w3.org/1999/xlink" x="0px" y="0px" viewBox="0 0 512 512" style="enable-background:new 0 0 512 512;" xml:space="preserve"><g><g><path d="M438.542,208.85L264.125,3.579c-4.042-4.773-12.208-4.773-16.25,0L73.458,208.85C67.354,216.03,64,225.169,64,234.578 v2.939c0,21.904,17.813,39.733,39.729,39.733c11.813,0,22.937-5.21,30.5-14.297l79.104-94.951v301.316 c0,23.54,19.146,42.682,42.667,42.682s42.667-19.142,42.667-42.682V168.002l79.104,94.951c7.562,9.087,18.688,14.297,30.5,14.297 c21.917,0,39.729-17.829,39.729-39.733v-2.939C448,225.169,444.646,216.03,438.542,208.85z"></path></g></g></svg>