<?xml version="1.0" encoding="UTF-8"?>
<svg id="_Слой_1" data-name="Слой_1" xmlns="http://www.w3.org/2000/svg" viewBox="0 0 371 409.97">
  <defs>
    <style>
      .cls-1 {
        fill: #fefefe;
      }

      .cls-2 {
        fill: #fff;
      }
    </style>
  </defs>
  <path class="cls-1" d="M45.96,81.9c-4.85-6.93-10.62-12.18-13-19.82-1.08-3.45-1.29-6.37.88-9.25,2.36-3.14,4.94-6.13,7.19-9.34,1.45-2.07,3.15-3.94,3.17-6.95.03-5.1,3.41-8.17,7.67-10.47,2.88-1.56,5.2-3.19,3.4-7.37-.91-2.11-.21-4.93-.17-7.43.01-.94-.18-2.16,1.33-2.16.92,0,1.85-.28,2.62.8,1.14,1.6,2.41,3.21,3.93,4.43,3.58,2.89,8.95.81,10.12-3.72.57-2.2,1.42-4.33,1.88-6.54.5-2.42,1.64-3.88,4.21-4.03,2.71-.16,5.38-.25,6.83,2.74.29.59.64,1.15.91,1.74,3.37,7.44,9.27,10.64,17.3,11.61,17.85,2.14,34.87,7.44,49.29,18.37,6.58,4.99,12.24,11.48,18.27,17.27,8.28,7.96,16.55,15.9,24.02,24.6,6.85,7.97,15.97,12.38,25.01,16.95,15.11,7.62,29.02,17.01,41.95,27.89,4.28,3.6,9.99,3.52,14.9,5.58,2.44,1.03,4.58-1.96,6.59-3.55,12.1-9.52,24.73-18.15,38.71-24.75,11.58-5.47,22.52-3.04,33.29,2.23,3.68,1.8,7.53,3.08,11.41,4.31,2.34.75,3.7,2.25,3.26,4.8-.44,2.53-2.54,2.18-4.34,2.17-4.54-.02-8.43-2.39-12.65-3.55-6.21-1.71-12.18-4.66-18.99-2.49-5.14,1.63-9.26,4.94-13.25,8.12-8.25,6.59-16.34,13.44-23.55,21.24-2.84,3.07-3.36,5.99-2.46,10.26,1.61,7.64,7.53,12.9,9.75,20.14,3.08,10.07,4.21,20.45,5.49,30.78,1.68,13.51,2.75,27.1,4.11,40.65.06.63.21,1.65.58,1.78,4.48,1.61,4.36,5.67,5,9.27,2.82,15.88,5.77,31.74,8.3,47.67,1.31,8.22-3.62,15.12-11.11,16.72-.63.13-1.31.38-1.9.27-1.89-.37-8.96-9.38-8.87-11.38.28-6.6.41-13.22.64-19.79.3-8.36-1.15-17.08-6.04-24.36-6.89-10.26-10.07-22.21-15.64-33.06-1.1-2.15-2.11-4.34-3.3-6.8-3.19,11.49-2.55,16.23,3.33,26.05.25.42.8.79.81,1.19.27,9.39,1.17,18.83.49,28.16-.5,6.87-1.22,13.55.77,20.22,1.91,6.4-3.87,15.93-10.36,16.81-.97.13-1.88,0-2.84-.53-7-3.79-10.61-11.88-7.33-19.3,7.07-15.94,2.6-30.6-4.95-44.47-4.67-8.58-7.59-17.59-10.63-26.68-4.35-13-8.96-25.89-19.81-35.26-6.77-5.85-15.51-6.32-23.55-8.61-12.12-3.45-25.26-4.09-35.71-12.13-9.88-7.59-19.59-15.44-28.97-23.63-8.97-7.83-18.21-14.76-30.51-16.2-2.16-.25-4.04.34-5.5,1.64-9.04,8.05-18.16,8.61-28.34,1.69-5.2-3.54-11.46-5.51-17.14-8.37-2.05-1.03-3.67-.76-5.38.46-5.72,4.1-11.99,2.91-18.25,1.91-1.62-.26-3.3-.49-4.92-.36-3.96.3-7.03-1.5-8.6-4.72-1.83-3.75-4.39-4.55-8.18-4.39-5.54.23-15.5-7.5-17-12.78-.5-1.76.32-3.31,1.2-4.65,1.69-2.58,3.45-4.96,4.17-8.15.73-3.23,8.64-5.74,12.44-3.78,3.85,1.99,7.4,2.97,11.66,1.51,5.05-1.73,10.43-.83,16.34-1.19ZM64.51,21.66c-1.74-.68-3.49-1.36-5.49-2.14,2.04,3.45,4.04,2.45,5.04,3.45.94,2.35.01,2.31-1.98,3.51,2.25.92,4.03,3.2,6.07.29,3.59-5.12-1.36-4.17-3.64-5.11ZM217.29,150.22c1.57-1.16,3.61-3.13,5.15-1.82,1.69,1.44.32,3.93-.47,5.95-1.59,4.05-3.26,8.03-7.09,11.66,2.92,0,12.43-2.2,13.09-5.56.41-2.1,2.55-24.46,1.89-33.54-.21-2.86-.49-6.83-2.32-8.25-5.26-4.07-5.76-9.9-7.6-15.36-.86-2.56-1.69-5.4-5.08-7.23.82,4.62,1.35,8.48,2.22,12.26,1.7,7.49,2.87,15.06,4.1,22.64.48,2.95.84,5.51.18,8.56-.83,3.86-15.89,19.02-22.83,23,4.27,1.09,6.75-.17,8.96-2.44,3.23-3.33,6.54-6.57,9.82-9.86ZM148.36,66.71c1.33,2.6.13,4.5-1.09,5.39-4.62,3.35-9.5,7.19-15.39,6.76-8.56-.62-16.71,1.73-25.04,2.5-5.03.47-10.17.64-15.21,1.11-7.23.67-14.02,3.12-21.24,3.78-5.74.52-11.89.27-17.22,3.22-6.42,3.56-13.16,5.71-20.57,5.57-1.6-.03-9.37,7.57-9.44,9.16-.03.61.13,1.57.53,1.79,5.03,2.86,6.68,9.27,14.67,9.84,6.79.48,12.54.95,18.69-2.19,5.84-2.99,12.07-5.07,18.85-2.76,1.46.5,2.9.1,4.04-1.22,1.94-2.26,4.09-1.73,6.7-.87,5.29,1.74,10.38,4.31,16.53,5.28-2.78-3.48-2.55-6.51-1.2-9.78,1.18-2.86,2.09-5.83,2.14-9.01.02-1.24-.87-3.4,1.76-3.16,1.9.17,2.06,1.69,2.24,3.3.26,2.27-.75,4.21-1.38,6.2-.94,2.99-.88,5.84-.03,9.79,1.78-3.38,3.14-5.78,4.3-8.27.45-.97,1.06-1.14,1.92-1.06,1.16.11,1.09,1.04,1.12,1.84.11,3.17-.71,6.18-2.02,8.99-1.3,2.8-1.43,4.33,2.29,5.27,7.72,1.95,15.2,4.81,22.94,6.67,8.36,2.01,9.24,1.37,11.7-6.98,2.11-7.18,3.97-14.44,5.12-21.86.67-4.34,2.12-8.6,1.96-12.74-1.31,1.03-2.44,1.97-3.62,2.85-7.17,5.37-13.96,12.1-24.15,7.4-1.09-.5-3.58.14-3.08-2.3.45-2.2,2.64-1.43,3.7-1.13,5.97,1.72,9.84-1.66,14.54-4.47,4.67-2.79,4.74-8.16,8.54-11.06,5.03-3.83,7.97-9.21,10.12-14.94,1.55-4.14,2.6-8.89-.66-12.59-5.44-6.2-12.12-11.02-19.36-15.03-12.01-6.64-24.98-9.95-38.45-12.29-5.27-.92-4.91.64-4.64,4.3.12,1.59,1.12,3.81-1.07,4.87-4.41,2.14-9.25-.83-9.87-5.76-.73-5.84-2.02-11.53-4.86-16.8-.69-1.28-1.24-2.39-2.83-2.24-1.59.15-2.13,1.25-2.33,2.73-.18,1.27-.87,2.5-.89,3.76-.03,2.54.1,4.83-2.98,6.04-1.71.67-.76,1.97.13,3.18,2.9,3.94,8.03,5.86,9.76,10.84.07.2.08.77.93.35,2.91-1.43,2.59-1.09,4.23,1.83,2.36,4.2,2.57,9.92,8.62,11.78,2.09.64,2.57,3.67,2.19,6.11-.29,1.81-2.07,1.67-2.51.85-2.61-4.84-9.57-6.19-9.51-13.83-1.68,3.65-.51,5.93.17,8.19,1.91,6.3,1.76,11.96-3.91,16.52-2.2,1.77-4.31,4.56-7.18,3.3-2.92-1.29.77-4.05-.17-6.07-2.06-.6-2.51,3.81-4.85,1.64-2.07-1.92-.69-3.73.62-5.64.87-1.27.78-3.07-.29-4.75-2.08,1.03-3.91,2.16-5.89,2.83-1.22.42-3.66,1.03-3.25-1.34.76-4.4-2.25-4.49-5.62-4.8,2.05-2.41,4.91-3.24,5.45-6.38-3.46.05-5.19,3.1-7.98,3.69-1.22.26-2.83.64-3.75-.49-.58-.71-.41-2.03.59-2.66,4.97-3.13,5.21-8.53,6.54-13.41-4.75.65-8.79,4.18-9.36,8.33-.64,4.69-2.5,8.67-6.05,11.92-2.78,2.55-4.9,5.64-7.25,9.9,3.33-1.53,5.51-2.53,7.71-3.54,1.06,2.13.54,3.61-.9,5.11-2.08,2.16-1.59,5.26-2.21,7.89-.47,1.99,2.53,2.06,3.86,3.15.71.58,1.21,1.52,1.6,2.38,2.57,5.7,5.03,6.45,10.4,2.88,3.67-2.44,7.52-3.78,12-3.41,2.81.23,5.67-.06,8.49.06,9.23.4,15.68-3.73,19.74-11.9,1.82-3.67,3.76-7.28,5.53-10.97,1.82-3.78,4.89-6.34,8.81-6.79,1.74-.2,2.38-.66,3-1.82,3.12-5.77,2.49-7.35-2.39-11.92-1.73-1.61-6.53-1.59-4.88-4.75.97-1.85,4.25,1.48,6.62,2.12,5.2,1.4,7.38,4.8,6.93,10.25-.58,6.96-1.76,13.62-6.76,18.94-1.15,1.22-1.88,2.56-2.21,4.59,8.14-4.92,15.47-9.93,19.1-19.02,1.37-3.43,4.11-6.3,7.64-8.11.95-.49,1.83-.94,2.71-.26.76.58.64,1.64.14,2.26-2.72,3.36-5,6.92-7.22,10.65-3.49,5.87-9.02,11.06-15.19,14.78-2.99,1.81-4.62,4.33-6.58,7.54,1.82-.26,2.86-.73,3.81-1.6,6.11-5.57,13.21-9.6,20.66-13.05,1.15-.53,2.51-1.83,3.5-.38,1.29,1.88-.8,2.43-1.92,3.16-5.49,3.54-11.7,6.06-16.08,11.14-1.88,2.19-6.18,3.93-5.15,6.62,1.39,3.64,5.22.29,7.97.51,9,.71,16.67-2.47,23.82-8.35ZM190.32,77.03c-2.68,4.21-2.83,8.92-4.64,13.08-1.99,4.55-3.81,9.21-5.08,14.17-1.78,6.95-4.67,13.95-12.7,16.74-10.61,3.69-10.87,4.15-6.64,14.34,3.29,7.91,8.7,13.66,17.85,14.56.93.09,2.37.1,2.8-.45,4.25-5.48,11.19-8.1,14.92-14.05.63-1.01,1.14-1.52,2.26-1.27,1.14.25.89,1.23.93,1.99.23,4.02.31,7.99-3.4,10.8-1.1.83-1.49,1.97-1.63,3.42-.61,6.36-1.66,7.3-8.12,7.96,3.96,2.64,7.13,2.45,9.95-1.79,3.18-4.78,6.42-9.52,10.34-13.64,4.49-4.72,1.9-10.76,3.79-15.92,1.36-3.72,1.6-7.81.97-11.73-1.1-6.91-2.5-13.77-3.95-20.61-.53-2.48-1.41-4.99-5.01-5.46.84,7.27-2.05,13.82-2.05,20.81,0,6.6-.15,13.56-6.94,17.72-.46.28-.8,1.08-.86,1.67-.82,8.88-8.32,11.55-14.48,15.25-2.57,1.55-4.07-.12-3.52-3.02.24-1.25.81-2.49,1.45-3.6,3.41-5.89,7.11-11.63,10.23-17.67,1.27-2.45,1.28-5.37,5.13-5.53,1.44-.06,2.12-2,2.06-3.48-.22-5.53,1.74-10.67,3.21-15.78,2.33-8.1-.97-13.48-6.87-18.54ZM282.69,208.16c.71-4.11,1.57-7.29,3.28-10.36,3.28-5.87,4.28-12.56,6.19-18.93,1.61-5.39-.29-10.42-.11-15.61.03-.74-.32-1.79.84-2.01.97-.19,1.58.54,1.9,1.28,1.16,2.69,2.24,5.35,2.28,8.43.16,10.96.44,21.9-3.96,32.38,1.55-1.51,2.71-3.07,3.65-4.76,2.62-4.7,3.64-9.78,3.26-15.14-.09-1.22,0-2.68,1.27-2.92,1.37-.26,1.48,1.44,2.13,2.32,1.26,1.72.72,3.8,1.22,5.69,2.72,10.19-1.65,20.64-10.31,26.87-2.95,2.12-6.5,4.69-2.75,9.23,3.42-2.77,6.44-6.95,10.73-7.49,6.88-.86,6.37-4.34,5.87-9.58-.86-8.98-2.32-17.84-3.73-26.72-1.91-11.96-8.25-22.22-12.44-33.31-1.08-2.86-3.48-5.93-1.04-9.21,2.89-3.88.31-5.5-2.8-6.06-2.17-.39-4.27-2.09-6.78-.88,5.18,11.23,7.79,22.93,6.3,35.31-1.38.16-1.4-.53-1.67-1.13-2.43-5.53-1.45-11.65-3.04-17.3-2.37-8.42-4.42-17.13-14.3-20.31-3.14-1.01-6.34-1.88-10.04-4.75,2.24,6.46,3.8,11.7,5.86,16.74,5.76,14.07,6.08,28.38,1.33,42.61-1.74,5.2-.24,7.66,3.03,9.47,7.2-18.43,4.83-37.66,4.52-56.81,3.62,3.1,3.21,7.38,4.22,11.12,4.26,15.67,5.11,31.19-2.32,46.36-.87,1.77-2.54,4.17-.57,6.46,2.45,2.85,4.97,5.64,7.97,9.03ZM167.44,53.22c-.61,4.53.21,9.68-1.98,12.32-4.56,5.49-5.58,11.01-5.9,17.89-.48,10.35-1.7,20.68-1.52,31.08.06,3.36,2.29,3.77,4.68,3.11,1.47-.41,2.86-1.63,3.95-2.79,9.71-10.27,13.68-23.49,18.23-36.34.87-2.45,2.74-5.54-.14-8.3-1.84-1.77-3.48-3.75-5.3-5.73-1.55,12.32-7.1,22.17-12.58,21.96,2.73-3.85,4.01-8.21,5.68-12.41,4.58-11.58,3.69-13.31-5.13-20.8ZM260.43,182.97c3.69-6.73,1.86-13.64.76-20.8-2.15-13.99-4.6-27.86-9.32-41.22-.45-1.26-.34-2.89-1.7-3.89-8.43-6.2-17.19-11.84-26.73-17.15,1.13,5.14,2.95,9.32,4.99,13.58,1.06-1.13-.07-2.92,1.38-3.25,1.34-.31,1.8.98,2.32,2.09,1.1,2.37,2.54,4.59,3.56,7,3.81,8.98,8.4,17.82,5.39,28.15-.49,1.67-1.15,4.17-.35,5.19,2.85,3.61.09,6.15-1.02,9.03-.72,1.87-2.04,3.35-3.54,4.67-.58.51-1.27,1.15-.25,1.97.74.59,1.25.12,1.61-.37,2.51-3.4,6.12-6.49,7.24-10.31,2.99-10.22,6.24-20.7,1.83-31.44-.47-1.13-1.13-2.34.19-3,1.7-.86,2.25.75,2.78,1.92,4.25,9.38,6.77,19.05,4.12,29.35-.48,1.88-.45,3.32.04,5.17,1.68,6.45.23,9.04-5.76,11.44-.57.23-1.43.73-1.46,1.16-.1,1.15.95,1.41,1.86,1.86,4.55,2.28,8.18,5.82,12.05,8.87ZM275.02,275.43c.64,4.93-.95,10.18-3.13,15.06-2.44,5.46-.13,9.49,2.74,13.52,2.05,2.89,5.65,2.03,7.41-.95,2.94-4.99,2.21-9.89.54-14.89-.61-1.81-.34-3.42-.11-5.25.75-5.86,1.1-11.76,1.52-17.66.1-1.4.26-3.34-2.23-2.43-4.87,1.77-9.47,3.78-6.76,10.48.17.43.02.99.02,2.12ZM319.65,268.3c-2.42,4.08-7.51,4.23-7.56,8.67-.08,6.77-1.45,13.43-1.2,20.24.16,4.46,3.21,7.09,5.37,10.08,1.37,1.9,6.19.81,6.22-1.04.09-4.87,3.49-9.26,2.35-13.9-1.86-7.57-3.57-15.16-5.18-24.05ZM260.06,227.5c1.46,3.8,2.77,7.1,3.99,10.42.93,2.53,2.48,4.24,5.35,4.02,3.61-.29,5.42-3.48,7.77-5.57.41-.37.61-6.09-1.51-5.61-5.85,1.31-10.14-2.51-15.61-3.26ZM310.01,226.13c.55-1.89-.31-4.46-1.36-5.26-1.64-1.25-3.34,1.25-4.79,2.26-2.52,1.75-3.62,5.06-6.38,6.65-1.48.85-3.13,1.21-1.79,3.55,1.1,1.92,2.03,3.8,4.67,3.64,4.91-.3,9.7-5.56,9.65-10.84ZM311.64,268.03c7.62-3.59,7.53-3.57,5.74-11.38-.51-2.22-.32-4.61-.35-6.92-.02-1.82.18-3.67-1.53-4.92-1.6,5-1.18,11.35-8.7,12.71,2.27,3.31,3.36,6.86,4.85,10.51ZM278.75,244.13c-3.56,2.21-4.97,5.75-7.34,8.38-1.03,1.15.34,6.11,3.49,7.74,3.23,1.67,5.06-1.58,6.98-3,2.27-1.68,1.51-4.84.5-7.24-.86-2.05-2.34-3.83-3.64-5.88ZM310.79,240.58c-2.59,1.69-5.21,2.8-8.35,2.44-.87-.1-2.41-.32-2.27,1.07.28,2.62,1.58,4.88,3.34,6.88,1.05,1.2,2.48,1.35,3.62.86,2.16-.94,2.78-3.04,2.87-5.26.08-1.94-.24-3.92.79-5.99ZM256.18,214.55c.52,4.57,1.66,7.48,6.16,8.55,2.81.67,5.88.51,8.45,2.22,1.1.73,2.62,1.45,3.08-.53.42-1.81-.87-2.84-2.62-2.75-3.91.2-6.9-1.57-9.74-3.99-1.44-1.23-3.18-2.11-5.33-3.49ZM80.82,51.23c1.05-8.34-.89-15.72-5.08-22.5-2.62,1.7-1.42,3.8-.2,5.06,2.9,3.01,3.22,6.75,2.33,10.11-.93,3.54.38,5.32,2.95,7.32ZM251.64,201.17c-.33.37-.66.74-.98,1.11,5.57,4.2,11.13,8.41,16.7,12.61.27-.34.53-.69.79-1.03-4.82-5.09-9.14-10.8-16.51-12.69ZM58.68,80.59c4.72,2.46,13.21,2.32,15.82-1.32-5.75,3.1-10.86-4.25-15.82,1.32ZM294.59,120.84c2.96.37,5.87-.32,8.2,1.5,1.9,1.49,2.73-.23,3.51-1.27,1.07-1.43-.7-2.01-1.38-2.52-4.05-3.04-7.16-.97-10.32,2.29ZM69.32,39.3c-1,2.63-1.92,5.05-3.04,7.98,2.62-.91,6.01,1.27,7.07-1.49.87-2.27-1.12-4.88-4.03-6.49ZM314.09,107.65c.32,1.91,3.14,1.74,3.02,4.05-.09,1.68,1.04.65,1.46.21.71-.75,2.07-1.4.95-2.81-1.42-1.79-3.03-2.88-5.43-1.45ZM323.38,102.42c.54.94,1.35,1.83,1.54,2.83.25,1.34.48,1.62,1.76.91,1.17-.65,2.75-1.03,2.01-2.72-1.16-2.62-3.27-1.81-5.3-1.01ZM296.46,129.79c-1.12-2.11-3.16-2.1-5.39-2.69,1.33,2.51,3.7,1.68,5.39,2.69Z"/>
  <path class="cls-1" d="M112.06,331.99c0,15.16-.09,30.32.07,45.48.04,3.3-.52,4.76-4.27,4.53-27.17-1.66-51.27-9.98-71.15-29.67-15.72-15.57-26.06-33.84-29.35-55.37-4.58-29.9,1.24-57.6,20.85-81.75,12.78-15.75,28.36-27.17,47.59-33.46,8.55-2.8,17.38-4.18,26.43-4.86,23.04-1.73,44.37,3.73,63.18,16.5,23.39,15.87,38.86,37.66,43.77,66.2,1.04,6.03,1.81,11.98,1.95,18.09.08,3.57-1.03,4.4-4.48,4.38-29.82-.13-59.64,0-89.46-.18-4.09-.03-5.33.9-5.25,5.14.28,14.99.11,29.98.11,44.97ZM30.85,281.97h-6.5c-11.38,0-11.65.03-10.23,11.16,2.09,16.36,8.68,30.92,18.59,44.07,1.77,2.35,3.2,2.75,5.04.53,4.08-4.91,9.56-8.03,14.77-11.41,2.51-1.63,2.71-2.94,1.99-5.6-3.1-11.55-5.93-23.2-5.4-35.3.13-3.04-1.12-3.6-3.78-3.5-4.82.17-9.66.05-14.49.05ZM185.85,275.97h6.99c11.26,0,11.5-.03,10.15-11.21-2.05-16.93-9.56-31.56-19.55-45.13-1.41-1.91-1.97-1.68-3.19-.34-4.91,5.38-11.11,9.21-16.9,13.46-1.87,1.37-1.78,2.33-1.28,3.82,3.97,11.87,6.24,24.02,5.95,36.57-.05,2.17.7,2.92,2.87,2.87,4.99-.12,9.98-.04,14.97-.03ZM30.51,275.97c4.82,0,9.65-.03,14.47.02,1.82.02,2.94-.11,3.17-2.55,1.19-12.66,2.76-25.28,6.52-37.48.49-1.58-.21-2.4-1.08-2.87-6.56-3.56-11.55-9.1-17.39-13.57-1.31-1-1.54-1.11-2.63.32-5.96,7.82-11.06,16.14-14.42,25.38-3.06,8.42-5.37,17.06-6.13,26.06-.3,3.56.54,5.14,4.51,4.79,4.29-.38,8.64-.09,12.97-.09ZM80.58,281.97c-5.32,0-10.64-.11-15.95.04-3.11.09-6.28-1.13-8.57.96-1.96,1.79,2.54,24.05,4.1,32.37.96,5.13,3.39,4.77,7.24,2.96,10.88-5.11,22.53-7.38,34.44-8.25,2.71-.2,3.31-1.04,3.27-3.51-.13-6.98-.16-13.96.01-20.94.07-2.77-.69-3.77-3.59-3.69-6.97.19-13.96.06-20.94.06ZM79.99,275.97c7.31,0,14.63-.07,21.94.04,2.33.04,3.21-.65,3.17-3.08-.13-7.31-.08-14.62-.02-21.94.02-1.94-.32-3-2.67-3.06-13.4-.3-26.03-3.85-38.16-9.35-1.94-.88-2.53-.79-3.3,1.61-3.41,10.64-4.41,21.67-5.87,32.63-.31,2.31.46,3.25,2.97,3.19,7.31-.15,14.63-.05,21.94-.05ZM136.54,275.97c6.98,0,13.97-.13,20.95.06,2.88.08,3.54-.9,3.63-3.67.36-10.8-2.38-21.04-5.12-31.31-.66-2.48-1.68-3.29-4.44-2.06-11.68,5.22-23.8,8.93-36.75,8.93-2.8,0-2.78,1.48-2.77,3.46.05,6.98.13,13.97-.04,20.95-.07,2.77.68,3.78,3.59,3.7,6.98-.2,13.96-.06,20.95-.06ZM105.05,185.02c-1.06.25-1.57.26-1.96.48-15.65,8.67-27.13,21.24-34.99,37.24-3.76,7.66-3.93,7.94,4.01,11.17,9.52,3.86,19.34,6.89,29.79,7.11,2.32.05,3.2-.6,3.19-3.06-.09-17.46-.05-34.93-.05-52.94ZM105.06,373.48v-45.86c0-10.61-.04-10.94-10.24-9.57-9.52,1.28-18.86,3.57-27.46,8.18-1.77.95-2.64,1.62-1.7,4.11,1.93,5.09,4.91,9.54,7.67,14.11,7.51,12.46,18.03,21.73,31.74,29.03ZM112.06,184.69c0,18.35.04,36.07-.04,53.79-.01,3.02,1.95,2.56,3.69,2.48,11.57-.52,22.35-3.87,32.83-8.67,3.39-1.56,3.75-2.81,2.25-6.13-4.88-10.73-11.61-20.18-19.93-28.32-5.26-5.15-11.26-9.69-18.79-13.14ZM89.52,373.19c-1.7-1.83-2.58-3.08-3.73-3.97-12.13-9.35-20.23-21.75-26.57-35.39-1.15-2.47-1.85-2.14-3.51-1.01-4.59,3.15-9.09,6.4-13.24,10.15-2.03,1.83-2.17,2.82-.1,4.89,12.95,12.95,28.79,20.35,47.15,25.33ZM57.92,226.81c6.22-16.2,17.12-28.92,29.71-40.48-18.64,3.86-34.18,12.87-47.46,26.01,4.94,6.05,11.1,10.32,17.75,14.48ZM129.34,185.84c.84,2.44,2.58,3.55,3.98,4.88,10.42,9.89,20,20.36,24.78,34.32.56,1.63,1.21,1.64,2.83.71,5.62-3.23,9.51-8.51,14.86-12.02,1.41-.93.84-1.8-.17-2.67-2.61-2.24-5.13-4.6-7.8-6.77-11.25-9.16-24.07-15.05-38.47-18.45Z"/>
  <path class="cls-1" d="M213.03,370.64c0,4.66-.31,9.35.06,13.99.81,9.95-4.22,14.46-12.14,17.18-9.06,3.11-18.09,6.47-27.62,7.98-3.85.61-7.59-.48-11.17-1.4-7.07-1.81-14.01-4.19-20.93-6.53-8.01-2.7-12.13-8.58-12.17-17.08-.04-9.66,0-19.32,0-28.98,0-5.98,2.18-11.11,7.2-14.3,2.46-1.57,2.8-3.17,2.83-5.61.11-8-.76-15.89,3.69-23.53,7.06-12.13,20.27-17.62,31.84-16.21,16.59,2.03,25.01,12.4,28.22,24.83,1.34,5.2,1.73,10.76,1.19,16.24-.21,2.18.46,3.51,2.52,4.67,4.28,2.4,6.54,6.21,6.5,11.26-.04,5.83-.01,11.66-.01,17.49ZM171.74,345.95c-8.15,0-16.3-.02-24.45,0-7.16.03-11.21,4.05-11.24,11.18-.03,8.98.03,17.96-.02,26.94-.02,4.49,1.63,8.29,5.76,9.94,7.96,3.19,15.99,6.4,24.51,7.83,2.62.44,5.09,1.24,8.14.59,8.48-1.81,16.4-5.23,24.65-7.67,4.35-1.29,7.06-4.48,6.98-9.58-.14-9.81,0-19.62-.05-29.43-.03-6.1-3.71-9.76-9.83-9.8-8.15-.04-16.3-.01-24.45-.01ZM171.11,338.95c7.49,0,14.97.02,22.46-.02,1.54,0,3.37.56,3.49-2.18.59-12.82-2.08-25.95-17.23-31.95-9.7-3.84-22.76-.23-28.89,8.25-4.92,6.81-5.37,14.5-5.93,22.33-.21,2.88.84,3.69,3.64,3.62,7.48-.17,14.97-.06,22.46-.06Z"/>
  <path class="cls-2" d="M169.02,376.52c0-1.49-.05-2.98.02-4.47.08-1.7.32-3.67,2.5-3.57,2.1.1,2.33,2.06,2.36,3.76.05,2.81.06,5.63,0,8.44-.03,1.69-.21,3.72-2.31,3.79-2.55.09-2.47-2.18-2.57-3.99-.07-1.32-.01-2.65,0-3.97Z"/>
</svg>